<svg width="288" height="265" viewBox="0 0 288 265" fill="none" xmlns="http://www.w3.org/2000/svg">
<path fill-rule="evenodd" clip-rule="evenodd" d="M131.243 50.1398C119.339 52.3324 106.604 58.5932 96.2145 67.3608C90.9816 71.7773 90.8558 71.8398 94.0291 68.4449C95.8814 66.4634 99.0158 63.5785 100.995 62.0339L104.592 59.2252L102.597 57.6052C96.6373 52.7647 87.9894 53.3861 82.1833 59.072C78.8895 62.2969 77.5641 65.7155 77.5641 70.9844C77.5641 74.4884 77.9937 76.0063 79.8093 78.9232C81.0442 80.907 82.0545 82.6826 82.0545 82.8694C82.0545 83.0569 80.9222 85.017 79.5384 87.2272C76.0747 92.7584 72.7697 100.694 70.7221 108.398C69.2238 114.035 69 116.665 69 128.602C69 144.664 70.181 150.584 75.7192 162.269C80.1049 171.524 85.9433 179.196 97.3812 190.737L106.827 200.267L106.329 196.073L105.832 191.88L112.466 198.379C116.115 201.954 124.754 210.531 131.664 217.439C138.575 224.348 144.54 230 144.921 230C145.302 230 151.268 224.348 158.178 217.439C165.088 210.531 173.727 201.954 177.376 198.379L184.01 191.88L183.512 196.073L183.014 200.267L191.742 191.499C208.78 174.381 215.224 164.093 219.453 147.263C221.657 138.489 221.472 117.304 219.114 108.398C217.072 100.69 213.773 92.766 210.284 87.196L207.749 83.1484L209.333 81.0968C217.944 69.9476 210.453 54.2232 196.561 54.2895C193.647 54.3032 188.466 56.4471 187.008 58.2418C186.21 59.2245 186.503 59.7475 188.879 61.5795C193.179 64.8944 198.687 70.2769 201.272 73.6902C203.224 76.267 202.823 76.0223 198.769 72.16C188.788 62.653 181.965 58.1144 171.4 53.9586C159.233 49.1716 144.241 47.7459 131.243 50.1398ZM115.316 84.1716C117.037 86.6737 116.764 89.8826 114.644 92.041C113.634 93.0702 112.44 93.9127 111.991 93.9127C111.542 93.9127 110.348 93.0702 109.338 92.041C105.961 88.6018 107.66 82.4767 111.991 82.4767C113.375 82.4767 114.57 83.0859 115.316 84.1716ZM181.176 84.1716C182.898 86.6737 182.624 89.8826 180.504 92.041C179.494 93.0702 178.3 93.9127 177.851 93.9127C177.402 93.9127 176.208 93.0702 175.198 92.041C171.821 88.6018 173.52 82.4767 177.851 82.4767C179.235 82.4767 180.43 83.0859 181.176 84.1716ZM158.018 90.1182C173.835 96.2189 184.278 112.734 182.731 129.199C181.449 142.849 178.893 147.049 160.126 166.34L144.921 181.969L129.716 166.34C114.032 150.219 110.989 146.156 108.741 138.348C104.685 124.256 107.861 110.082 117.299 100.16C126.097 90.9111 134.071 87.6092 146.418 88.1025C151.453 88.303 154.838 88.8915 158.018 90.1182ZM138.44 117.515C134.459 118.481 131.143 120.882 129.718 123.828C128.401 126.552 128.403 126.734 129.785 129.906C131.539 133.931 136.162 138.273 141.57 140.976L145.655 143.017L149.133 141.295C160.435 135.702 165.313 126.767 160.013 121.367C156.277 117.563 145.887 115.707 138.44 117.515Z" fill="url(#paint0_linear)"/>
<path opacity="0.2" d="M258.091 116.086C268.519 198.298 186.622 249.617 144.37 265C103.466 249.3 23.6361 197.537 31.5472 116.086C41.436 14.2729 112.905 0 144.37 0C175.834 0 245.056 13.3214 258.091 116.086Z" fill="url(#paint1_linear)"/>
<path opacity="0.3" d="M246.5 205.5C214.141 237.859 198.833 248.833 178.5 261C207.167 257.167 268 244.4 282 224C299.5 198.5 271 181 246.5 205.5Z" fill="url(#paint2_linear)"/>
<path opacity="0.3" d="M40.9054 205.5C73.2647 237.859 88.5721 248.833 108.905 261C80.2387 257.167 19.4054 244.4 5.4054 224C-12.0946 198.5 16.4053 181 40.9054 205.5Z" fill="url(#paint3_linear)"/>
<defs>
<linearGradient id="paint0_linear" x1="145" y1="49" x2="145" y2="230" gradientUnits="userSpaceOnUse">
<stop stop-color="#4065C5"/>
<stop offset="1" stop-color="#BEBDFF"/>
</linearGradient>
<linearGradient id="paint1_linear" x1="145" y1="0" x2="145" y2="265" gradientUnits="userSpaceOnUse">
<stop stop-color="#3F75FF" stop-opacity="0"/>
<stop offset="1" stop-color="#B0AEFF"/>
</linearGradient>
<linearGradient id="paint2_linear" x1="232.953" y1="193.739" x2="232.953" y2="261" gradientUnits="userSpaceOnUse">
<stop stop-color="#3F75FF" stop-opacity="0"/>
<stop offset="1" stop-color="#B0AEFF"/>
</linearGradient>
<linearGradient id="paint3_linear" x1="54.4527" y1="193.739" x2="54.4527" y2="261" gradientUnits="userSpaceOnUse">
<stop stop-color="#3F75FF" stop-opacity="0"/>
<stop offset="1" stop-color="#B0AEFF"/>
</linearGradient>
</defs>
</svg>
