<svg width="50" height="29" viewBox="0 0 50 29" fill="none" xmlns="http://www.w3.org/2000/svg">
<path d="M48.8536 1.96387C49.2029 0.830869 48.8536 0 47.2018 0H41.7298C40.3375 0 39.7012 0.718788 39.3519 1.50823C39.3519 1.50823 36.5697 8.13325 32.6273 12.4289C31.3547 13.6789 30.7733 14.0736 30.0797 14.0736C29.7328 14.0736 29.2288 13.6789 29.2288 12.5459V1.96387C29.2288 0.604269 28.8271 0 27.6668 0H19.0683C18.2 0 17.676 0.628634 17.676 1.22803C17.676 2.51454 19.6472 2.8118 19.8493 6.43741V14.3026C19.8493 16.0253 19.5325 16.3396 18.8338 16.3396C16.9799 16.3396 12.4685 9.69022 9.79118 2.07839C9.26968 0.599395 8.74319 0.00243755 7.34588 0.00243755H1.87639C0.311901 0.00243755 0 0.721224 0 1.51067C0 2.92875 1.85394 9.94606 8.6359 19.2269C13.1572 25.5644 19.5225 29 25.3213 29C28.7971 29 29.2263 28.2374 29.2263 26.9216V22.1313C29.2263 20.606 29.5582 20.299 30.6586 20.299C31.467 20.299 32.8593 20.6986 36.1056 23.7516C39.8135 27.3724 40.4273 28.9976 42.5108 28.9976H47.9803C49.5423 28.9976 50.3233 28.2349 49.8741 26.7291C49.3826 25.2306 47.611 23.0499 45.2605 20.4696C43.983 18.9979 42.0741 17.4141 41.4927 16.6222C40.6818 15.6013 40.9164 15.1506 41.4927 14.2442C41.4952 14.2466 48.1599 5.08024 48.8536 1.96387Z" fill="url(#paint0_linear)"/>
<defs>
<linearGradient id="paint0_linear" x1="0" y1="0" x2="51.9702" y2="4.11446" gradientUnits="userSpaceOnUse">
<stop stop-color="#4065C5"/>
<stop offset="1" stop-color="#8897E6"/>
</linearGradient>
</defs>
</svg>
